# xmcd
#
# Track frame offsets: 
#        150
#        21440
#        42555
#        67951
#        103344
#        122185
#        140761
#        158838
#        180515
#        209113
#        232059
#        275785
#
# Disc length: 4103 seconds
#
# Revision: 0
# Processed by: cddbd v1.5.2PL0 Copyright (c) Steve Scherf et al.
# Submitted via: ExactAudioCopy v0.99pb3
#
DISCID=c310050c
DTITLE=Robert Ealey - Blues That Time Forgot
DYEAR=2012
DGENRE=Blues
TTITLE0=Johnny's Boogie
TTITLE1=Robert's Jump
TTITLE2=Johnny's Blues
TTITLE3=Believe I'll Go Back Home
TTITLE4=Robert's Tune
TTITLE5=Worried Life Blues
TTITLE6=Johnny's Broomduster
TTITLE7=Oh, Baby
TTITLE8=You Know I Love You
TTITLE9=Johnny's Shuffle
TTITLE10=So Long, Baby
TTITLE11=I Want You To Love Me
EXTD=
EXTT0=
EXTT1=
EXTT2=
EXTT3=
EXTT4=
EXTT5=
EXTT6=
EXTT7=
EXTT8=
EXTT9=
EXTT10=
EXTT11=
PLAYORDER=
